<svg width="88" height="61" viewBox="0 0 88 61" fill="none" xmlns="http://www.w3.org/2000/svg">
<path fill-rule="evenodd" clip-rule="evenodd" d="M73.3152 13.349L71.6256 13.349C76.6187 13.349 79.623 10.1903 77.5251 7.64423C76.9481 6.94432 76.6188 5.97255 76.6188 4.61533C76.6188 0.923041 78.895 -3.16108e-05 82.4196 -3.17649e-05C85.7973 -3.19125e-05 88.0001 0.923041 88.0001 4.61533C88.0001 8.23661 85.7973 9.15969 82.4196 9.15969C80.8872 9.15969 79.7037 9.528 78.8175 10.1311C77.2875 11.8459 77.0262 13.9993 78.561 15.9291C79.4381 17.0316 79.9388 18.5624 79.9388 20.7003C79.9388 26.5164 76.4783 27.9705 71.1199 27.9705C65.9848 27.9705 62.6357 26.5164 62.6357 20.7003C62.6357 14.996 65.9848 13.5419 71.1199 13.5419C71.9119 13.5419 72.6427 13.4749 73.3152 13.349Z" fill="black"/>
<path d="M0.700195 25.3644V9.22338H6.37261C7.51017 9.22338 8.44789 9.40785 9.18576 9.77678C9.93901 10.1304 10.5001 10.6223 10.869 11.2525C11.238 11.8674 11.4224 12.5592 11.4224 13.3278C11.4224 14.3731 11.1381 15.1956 10.5693 15.7951C10.0159 16.3946 9.34717 16.8097 8.56318 17.0402C9.1627 17.1479 9.70843 17.3861 10.2003 17.7551C10.6923 18.124 11.0766 18.5852 11.3533 19.1386C11.6453 19.692 11.7914 20.2992 11.7914 20.9602C11.7914 21.7749 11.5915 22.5205 11.1919 23.1969C10.7922 23.8579 10.2003 24.3883 9.41635 24.7879C8.63236 25.1722 7.67927 25.3644 6.55708 25.3644H0.700195ZM2.63712 16.2793H6.23426C7.26421 16.2793 8.05589 16.041 8.6093 15.5645C9.1627 15.0726 9.43941 14.3962 9.43941 13.5353C9.43941 12.7206 9.1627 12.0673 8.6093 11.5754C8.07126 11.0834 7.25653 10.8375 6.16509 10.8375H2.63712V16.2793ZM2.63712 23.7503H6.34955C7.45637 23.7503 8.30954 23.4967 8.90906 22.9894C9.50858 22.4667 9.80834 21.7442 9.80834 20.8219C9.80834 19.9149 9.49321 19.1924 8.86294 18.6543C8.23267 18.1009 7.37951 17.8242 6.30344 17.8242H2.63712V23.7503Z" fill="black"/>
<path d="M14.4561 25.3644V8.76221H16.393V25.3644H14.4561Z" fill="black"/>
<path d="M24.779 25.6411C23.7029 25.6411 22.7344 25.3951 21.8736 24.9032C21.0127 24.4113 20.3287 23.7196 19.8214 22.828C19.3294 21.921 19.0835 20.8603 19.0835 19.6459C19.0835 18.4314 19.3371 17.3784 19.8444 16.4868C20.3517 15.5799 21.0358 14.8804 21.8966 14.3885C22.7729 13.8966 23.749 13.6506 24.8251 13.6506C25.9012 13.6506 26.8696 13.8966 27.7305 14.3885C28.5913 14.8804 29.2677 15.5799 29.7596 16.4868C30.2669 17.3784 30.5206 18.4314 30.5206 19.6459C30.5206 20.8603 30.2669 21.921 29.7596 22.828C29.2523 23.7196 28.5606 24.4113 27.6844 24.9032C26.8235 25.3951 25.855 25.6411 24.779 25.6411ZM24.779 23.9809C25.44 23.9809 26.0549 23.8195 26.6237 23.4967C27.1924 23.1738 27.6536 22.6896 28.0072 22.044C28.3607 21.3983 28.5375 20.599 28.5375 19.6459C28.5375 18.6928 28.3607 17.8934 28.0072 17.2478C27.669 16.6021 27.2155 16.1179 26.6467 15.7951C26.0779 15.4723 25.4707 15.3109 24.8251 15.3109C24.1641 15.3109 23.5492 15.4723 22.9804 15.7951C22.4116 16.1179 21.9504 16.6021 21.5969 17.2478C21.2433 17.8934 21.0665 18.6928 21.0665 19.6459C21.0665 20.599 21.2433 21.3983 21.5969 22.044C21.9504 22.6896 22.4039 23.1738 22.9573 23.4967C23.5261 23.8195 24.1333 23.9809 24.779 23.9809Z" fill="black"/>
<path d="M38.4711 25.6411C37.3797 25.6411 36.3958 25.3951 35.5196 24.9032C34.6587 24.3959 33.9747 23.6965 33.4674 22.8049C32.9755 21.8979 32.7295 20.8449 32.7295 19.6459C32.7295 18.4468 32.9755 17.4015 33.4674 16.5099C33.9747 15.6029 34.6587 14.9035 35.5196 14.4116C36.3958 13.9043 37.3797 13.6506 38.4711 13.6506C39.8239 13.6506 40.9614 14.0042 41.8838 14.7113C42.8215 15.4185 43.4133 16.3639 43.6593 17.5475H41.6762C41.5225 16.8404 41.1459 16.2947 40.5464 15.9104C39.9468 15.5107 39.2474 15.3109 38.448 15.3109C37.8024 15.3109 37.1952 15.4723 36.6264 15.7951C36.0576 16.1179 35.5965 16.6021 35.2429 17.2478C34.8893 17.8934 34.7125 18.6928 34.7125 19.6459C34.7125 20.599 34.8893 21.3983 35.2429 22.044C35.5965 22.6896 36.0576 23.1815 36.6264 23.5197C37.1952 23.8425 37.8024 24.0039 38.448 24.0039C39.2474 24.0039 39.9468 23.8118 40.5464 23.4275C41.1459 23.0278 41.5225 22.4667 41.6762 21.7442H43.6593C43.4287 22.8971 42.8445 23.8348 41.9068 24.5574C40.9691 25.2799 39.8239 25.6411 38.4711 25.6411Z" fill="black"/>
<path d="M46.3643 25.3644V8.76221H48.3013V18.7466L52.9822 13.9273H55.3572L50.2843 19.0925L56.0028 25.3644H53.5356L48.3013 19.4383V25.3644H46.3643Z" fill="black"/>
<path d="M0.700195 55.3406V39.1996H2.63712V55.3406H0.700195Z" fill="black"/>
<path d="M5.94423 55.3406V43.9035H7.69668L7.81197 45.9557C8.18091 45.2332 8.71126 44.6645 9.40302 44.2494C10.0948 43.8343 10.8788 43.6268 11.755 43.6268C13.1078 43.6268 14.1838 44.0419 14.9832 44.872C15.7979 45.6867 16.2053 46.9473 16.2053 48.6536V55.3406H14.2684V48.8611C14.2684 46.4784 13.2846 45.287 11.3169 45.287C10.333 45.287 9.51063 45.6483 8.84961 46.3708C8.20397 47.0779 7.88115 48.0925 7.88115 49.4145V55.3406H5.94423Z" fill="black"/>
<path d="M23.521 55.6173C22.1529 55.6173 21.0153 55.2714 20.1083 54.5797C19.2014 53.8879 18.671 52.9502 18.5173 51.7665H20.5003C20.6233 52.366 20.9384 52.8887 21.4457 53.3345C21.9684 53.7649 22.6678 53.9801 23.5441 53.9801C24.3588 53.9801 24.9583 53.811 25.3426 53.4728C25.727 53.1193 25.9191 52.7042 25.9191 52.2277C25.9191 51.5359 25.6655 51.0748 25.1582 50.8442C24.6663 50.6136 23.9668 50.4061 23.0598 50.2216C22.4449 50.0986 21.83 49.9218 21.2151 49.6912C20.6003 49.4606 20.0853 49.1378 19.6702 48.7228C19.2552 48.2923 19.0476 47.7313 19.0476 47.0395C19.0476 46.0403 19.4166 45.2255 20.1545 44.5953C20.9077 43.9496 21.9223 43.6268 23.1982 43.6268C24.4126 43.6268 25.4041 43.9343 26.1727 44.5492C26.9567 45.1487 27.4102 46.0095 27.5332 47.1317H25.6193C25.5425 46.5476 25.2888 46.0941 24.8584 45.7713C24.4434 45.4331 23.8823 45.264 23.1751 45.264C22.4834 45.264 21.9453 45.41 21.561 45.7021C21.1921 45.9942 21.0076 46.3785 21.0076 46.855C21.0076 47.3162 21.2459 47.6775 21.7224 47.9388C22.2144 48.2001 22.8754 48.423 23.7055 48.6075C24.4126 48.7612 25.0813 48.9534 25.7116 49.1839C26.3572 49.3992 26.8799 49.7297 27.2796 50.1755C27.6946 50.6059 27.9021 51.2362 27.9021 52.0663C27.9175 53.0962 27.5255 53.9494 26.7262 54.6258C25.9422 55.2868 24.8738 55.6173 23.521 55.6173Z" fill="black"/>
<path d="M31.8452 41.3671C31.4609 41.3671 31.138 41.2441 30.8767 40.9981C30.6307 40.7368 30.5078 40.414 30.5078 40.0297C30.5078 39.6607 30.6307 39.3533 30.8767 39.1073C31.138 38.8614 31.4609 38.7384 31.8452 38.7384C32.2141 38.7384 32.5292 38.8614 32.7906 39.1073C33.0519 39.3533 33.1826 39.6607 33.1826 40.0297C33.1826 40.414 33.0519 40.7368 32.7906 40.9981C32.5292 41.2441 32.2141 41.3671 31.8452 41.3671ZM30.8767 55.3406V43.9035H32.8136V55.3406H30.8767Z" fill="black"/>
<path d="M40.7056 51.7435C40.06 51.7435 39.4681 51.6589 38.9301 51.4898L37.7772 52.5736C37.9463 52.6965 38.1538 52.8041 38.3998 52.8964C38.6611 52.9732 39.03 53.0501 39.5066 53.127C39.9831 53.1885 40.6518 53.2576 41.5127 53.3345C43.0499 53.4421 44.149 53.7957 44.8101 54.3952C45.4711 54.9947 45.8016 55.7787 45.8016 56.7472C45.8016 57.4082 45.6171 58.0385 45.2482 58.638C44.8946 59.2375 44.3412 59.7294 43.5879 60.1137C42.8501 60.498 41.897 60.6902 40.7287 60.6902C39.6987 60.6902 38.7841 60.5518 37.9847 60.2751C37.1853 60.0138 36.5628 59.6064 36.117 59.053C35.6712 58.515 35.4483 57.8309 35.4483 57.0008C35.4483 56.5704 35.5635 56.1015 35.7941 55.5942C36.0247 55.1023 36.4551 54.6335 37.0854 54.1877C36.7472 54.0493 36.4551 53.9033 36.2092 53.7496C35.9786 53.5805 35.7634 53.396 35.5635 53.1961V52.6658L37.5235 50.7289C36.6166 49.9603 36.1631 48.9457 36.1631 47.6851C36.1631 46.9319 36.3399 46.2478 36.6934 45.6329C37.047 45.018 37.562 44.5338 38.2383 44.1802C38.9147 43.8113 39.7372 43.6268 40.7056 43.6268C41.3666 43.6268 41.9662 43.7191 42.5042 43.9035H46.7239V45.3562L44.5795 45.4485C45.0253 46.0941 45.2482 46.8397 45.2482 47.6851C45.2482 48.4384 45.0637 49.1225 44.6948 49.7374C44.3412 50.3522 43.8262 50.8442 43.1498 51.2131C42.4888 51.5667 41.6741 51.7435 40.7056 51.7435ZM40.7056 50.1524C41.5204 50.1524 42.166 49.9449 42.6425 49.5298C43.1345 49.0994 43.3804 48.4845 43.3804 47.6851C43.3804 46.9011 43.1345 46.3016 42.6425 45.8866C42.166 45.4561 41.5204 45.2409 40.7056 45.2409C39.8755 45.2409 39.2145 45.4561 38.7226 45.8866C38.246 46.3016 38.0078 46.9011 38.0078 47.6851C38.0078 48.4845 38.246 49.0994 38.7226 49.5298C39.2145 49.9449 39.8755 50.1524 40.7056 50.1524ZM37.3391 56.8163C37.3391 57.585 37.6619 58.1537 38.3075 58.5227C38.9532 58.907 39.7602 59.0991 40.7287 59.0991C41.6818 59.0991 42.4427 58.8916 43.0115 58.4766C43.5956 58.0615 43.8877 57.5081 43.8877 56.8163C43.8877 56.3244 43.6879 55.894 43.2882 55.5251C42.8885 55.1715 42.1506 54.964 41.0746 54.9025C40.2291 54.841 39.4989 54.7641 38.884 54.6719C38.2537 55.0101 37.8387 55.3713 37.6388 55.7556C37.439 56.1553 37.3391 56.5089 37.3391 56.8163Z" fill="black"/>
<path d="M48.9089 55.3406V38.7384H50.8458V45.8635C51.2301 45.1564 51.7758 44.6107 52.483 44.2263C53.1901 43.8267 53.9587 43.6268 54.7888 43.6268C56.1109 43.6268 57.1716 44.0419 57.9709 44.872C58.7703 45.6867 59.17 46.9473 59.17 48.6536V55.3406H57.2561V48.8611C57.2561 46.4784 56.2953 45.287 54.3738 45.287C53.3746 45.287 52.5368 45.6483 51.8604 46.3708C51.184 47.0779 50.8458 48.0925 50.8458 49.4145V55.3406H48.9089Z" fill="black"/>
<path d="M66.624 55.3406C65.5787 55.3406 64.7563 55.0869 64.1568 54.5797C63.5572 54.0724 63.2575 53.1577 63.2575 51.8357V45.5407H61.2744V43.9035H63.2575L63.5111 41.1595H65.1944V43.9035H68.561V45.5407H65.1944V51.8357C65.1944 52.5582 65.3404 53.0501 65.6325 53.3114C65.9246 53.5574 66.4396 53.6804 67.1774 53.6804H68.3765V55.3406H66.624Z" fill="black"/>
<path d="M75.4029 55.6173C74.0347 55.6173 72.8972 55.2714 71.9902 54.5797C71.0832 53.8879 70.5529 52.9502 70.3992 51.7665H72.3822C72.5052 52.366 72.8203 52.8887 73.3276 53.3345C73.8503 53.7649 74.5497 53.9801 75.4259 53.9801C76.2407 53.9801 76.8402 53.811 77.2245 53.4728C77.6088 53.1193 77.801 52.7042 77.801 52.2277C77.801 51.5359 77.5473 51.0748 77.04 50.8442C76.5481 50.6136 75.8487 50.4061 74.9417 50.2216C74.3268 50.0986 73.7119 49.9218 73.097 49.6912C72.4821 49.4606 71.9671 49.1378 71.5521 48.7228C71.137 48.2923 70.9295 47.7313 70.9295 47.0395C70.9295 46.0403 71.2984 45.2255 72.0363 44.5953C72.7896 43.9496 73.8041 43.6268 75.0801 43.6268C76.2945 43.6268 77.286 43.9343 78.0546 44.5492C78.8386 45.1487 79.2921 46.0095 79.4151 47.1317H77.5012C77.4243 46.5476 77.1707 46.0941 76.7403 45.7713C76.3252 45.4331 75.7641 45.264 75.057 45.264C74.3652 45.264 73.8272 45.41 73.4429 45.7021C73.074 45.9942 72.8895 46.3785 72.8895 46.855C72.8895 47.3162 73.1278 47.6775 73.6043 47.9388C74.0962 48.2001 74.7572 48.423 75.5873 48.6075C76.2945 48.7612 76.9632 48.9534 77.5934 49.1839C78.2391 49.3992 78.7617 49.7297 79.1614 50.1755C79.5765 50.6059 79.784 51.2362 79.784 52.0663C79.7994 53.0962 79.4074 53.9494 78.608 54.6258C77.824 55.2868 76.7556 55.6173 75.4029 55.6173Z" fill="black"/>
</svg>
