<svg width="36" height="35" viewBox="0 0 36 35" fill="none" xmlns="http://www.w3.org/2000/svg">
<path d="M33.9684 12.1533C34.0161 8.40923 32.2011 4.85085 29.1311 2.65346C25.9348 0.364992 22.0236 -0.250973 18.4713 0.636609C14.8515 -0.602402 10.8191 -0.00864216 7.72598 2.20677C4.56981 4.4666 2.77179 7.88337 2.49487 11.4379C0.0861841 14.4653 -0.629955 18.5009 0.572101 22.1445C1.79897 25.8658 4.61683 28.6382 8.04241 29.9703C10.2264 33.1151 13.8708 35.0006 17.7252 35C21.733 35 25.3094 33.1817 27.6525 30.3368C31.3021 29.2343 34.1941 26.4251 35.3707 22.8538C36.6037 19.1156 35.9666 15.2215 33.9684 12.1533ZM17.7941 22.5349L18.4815 20.4502L12.6883 20.4704C11.7459 20.4708 10.8688 19.8792 10.5618 18.9479L9.03417 14.3121C8.19263 11.7616 9.05964 8.86171 11.3798 7.20015L15.3432 4.3324C18.9834 1.72436 24.0551 1.58566 27.8928 4.33336C29.6184 5.57849 30.8589 7.34722 31.4543 9.32867C31.2204 9.13429 30.9791 8.94731 30.7296 8.7687L26.7378 5.93925C23.6587 3.73478 19.5904 3.84581 16.67 5.93796L12.6684 8.80281C11.1062 9.92146 10.5233 11.8736 11.0898 13.5905L12.6812 18.3715H14.9057L13.0959 12.9482C12.8046 12.0648 13.1044 11.0601 13.9084 10.4846L17.91 7.62012C20.111 6.04352 23.1777 5.95953 25.4982 7.62109L29.4903 10.4496C33.1321 13.0554 34.8331 17.7658 33.3672 22.2121C32.6886 24.2447 31.3351 25.9755 29.5681 27.1469C29.683 26.8682 29.7885 26.585 29.8835 26.2973L31.3805 21.6818C32.5564 18.1147 31.1917 14.3359 28.2707 12.245L24.2694 9.37984C22.7071 8.26151 20.6429 8.31815 19.1613 9.37984L15.1189 12.293L15.8063 14.3784L20.401 11.0617C21.1635 10.5155 22.2258 10.4863 23.0297 11.0617L27.0307 13.9272C29.2327 15.5028 30.261 18.3512 29.3747 21.0397L27.8788 25.6556C26.4893 29.874 22.469 32.9243 17.7255 32.9243C15.5101 32.9162 13.381 32.1525 11.6874 30.8089C12.0323 30.8369 12.3794 30.8511 12.7282 30.8511L17.6451 30.8279C21.4508 30.8279 24.6759 28.3811 25.7911 24.9972L27.3197 20.3613C27.9163 18.5514 27.2237 16.6343 25.7415 15.5736L21.7336 12.7039L19.9392 13.9886L24.5015 17.2551C25.2644 17.8009 25.621 18.7876 25.314 19.7187L23.7851 24.3542C22.9442 26.9049 20.5133 28.7489 17.6451 28.7489L12.7282 28.7731C8.2279 28.7744 4.04209 25.9488 2.57618 21.5028C1.89531 19.4116 1.97923 17.166 2.76526 15.1546C2.85212 15.5363 2.95662 15.9151 3.08038 16.2903L4.62206 20.8917C5.79832 24.4584 9.1563 26.7253 12.7667 26.7247H17.7127C19.6437 26.7247 21.2797 25.4828 21.8453 23.7659L23.3919 19.0296L21.5922 17.7411L19.8393 23.1235C19.5483 24.0072 18.7061 24.6461 17.7127 24.6461L12.7667 24.6454C10.0455 24.6461 7.5147 22.9375 6.62842 20.249L5.08577 15.6483C3.69398 11.4305 5.12691 6.63438 8.96494 3.88636C10.7185 2.64059 12.8346 2.0243 14.9533 2.09349C14.664 2.2676 14.3809 2.45361 14.1046 2.65121L10.1405 5.51799C7.06176 7.72246 5.91163 11.5702 7.02813 14.9538L8.55641 19.5896C9.15336 21.3995 10.857 22.5491 12.689 22.5484L17.7941 22.5349Z" fill="black"/>
</svg>
