<svg width="256" height="256" viewBox="0 0 256 256" fill="none" xmlns="http://www.w3.org/2000/svg">
<path fill-rule="evenodd" clip-rule="evenodd" d="M107.785 122.177L90.7363 122.177C141.13 122.177 171.452 93.267 150.278 69.9642C144.455 63.5582 141.131 54.6641 141.131 42.2421C141.131 8.44842 164.104 7.37789e-06 199.677 2.36197e-06C233.767 -2.44495e-06 256 8.44842 256 42.2421C256 75.3859 233.767 83.8344 199.677 83.8344C184.205 83.8344 172.258 87.2078 163.312 92.731C147.876 108.425 145.241 128.131 160.729 145.791C169.582 155.882 174.636 169.892 174.635 189.46C174.635 242.692 139.709 256 85.628 256C33.8007 256 -4.70051e-05 242.692 -9.01598e-07 189.46C4.43153e-05 137.251 33.8008 123.943 85.6281 123.943C93.6221 123.943 100.997 123.329 107.785 122.177Z" fill="black"/>
</svg>
