<svg width="256" height="249" viewBox="0 0 256 249" fill="none" xmlns="http://www.w3.org/2000/svg">
<path d="M241.553 86.4234C241.892 59.7989 228.986 34.495 207.155 18.869C184.425 2.5955 156.612 -1.7847 131.352 4.52699C105.61 -4.28375 76.936 -0.0614554 54.9403 15.6926C32.4964 31.7625 19.7105 56.0595 17.7413 81.3361C0.612865 102.864 -4.47968 131.562 4.06827 157.472C12.7927 183.934 32.8308 203.65 57.1905 213.122C72.7213 235.485 98.6368 248.893 126.046 248.889C154.546 248.889 179.978 235.959 196.64 215.728C222.593 207.888 243.158 187.912 251.525 162.516C260.293 135.933 255.763 108.242 241.553 86.4234ZM126.536 160.248L131.424 145.423L90.2282 145.567C83.5264 145.57 77.289 141.364 75.1061 134.741L64.243 101.775C58.2587 83.6383 64.4241 63.0166 80.9232 51.201L109.108 30.8082C134.993 12.2621 171.059 11.2758 198.349 30.815C210.619 39.6693 219.441 52.2469 223.675 66.3372C222.012 64.9549 220.296 63.6253 218.522 62.3552L190.135 42.2347C168.24 26.5584 139.31 27.348 118.543 42.2255L90.0865 62.5978C78.9772 70.5526 74.8321 84.4347 78.8611 96.6439L90.1771 130.642H105.996L93.1263 92.076C91.0549 85.7941 93.1866 78.6494 98.9039 74.5575L127.36 54.1875C143.011 42.9762 164.819 42.3789 181.32 54.1944L209.709 74.3081C235.606 92.8381 247.702 126.335 237.278 157.953C232.453 172.407 222.827 184.715 210.262 193.045C211.079 191.063 211.829 189.049 212.505 187.003L223.15 154.181C231.512 128.816 221.808 101.944 201.036 87.0756L172.582 66.7011C161.473 58.7485 146.794 59.1513 136.258 66.7011L107.512 87.4166L112.4 102.246L145.073 78.6608C150.496 74.7772 158.05 74.5689 163.767 78.6608L192.218 99.0376C207.877 110.242 215.189 130.498 208.887 149.616L198.249 182.44C188.368 212.438 159.78 234.128 126.048 234.128C110.294 234.071 95.1535 228.64 83.1107 219.086C85.5629 219.285 88.0314 219.385 90.5115 219.385L125.477 219.221C152.539 219.221 175.473 201.821 183.403 177.758L194.274 144.792C198.516 131.921 193.591 118.289 183.05 110.746L154.55 90.339L141.79 99.4747L174.233 122.703C179.658 126.584 182.194 133.601 180.011 140.222L169.138 173.185C163.159 191.324 145.872 204.437 125.477 204.437L90.5115 204.609C58.5095 204.618 28.7438 184.525 18.3195 152.909C13.4778 138.038 14.0746 122.069 19.664 107.766C20.2817 110.48 21.0248 113.174 21.905 115.842L32.868 148.563C41.2325 173.927 65.1115 190.047 90.7855 190.042H125.957C139.688 190.042 151.322 181.211 155.344 169.002L166.342 135.322L153.545 126.159L141.079 164.434C139.01 170.718 133.021 175.261 125.957 175.261L90.7855 175.256C71.4348 175.261 53.4379 163.111 47.1355 143.993L36.1655 111.277C26.2683 81.2834 36.4581 47.1778 63.7507 27.6363C76.2208 18.7775 91.2685 14.395 106.335 14.8871C104.277 16.1251 102.264 17.4479 100.299 18.853L72.1105 39.239C50.217 54.9153 42.0383 82.2766 49.9778 106.338L60.8456 139.304C65.0906 152.174 77.2054 160.349 90.2328 160.344L126.536 160.248Z" fill="black"/>
</svg>
