<svg width="32" height="32" viewBox="0 0 32 32" fill="none" xmlns="http://www.w3.org/2000/svg">
<path d="M30.1941 10.8029C30.2365 7.47487 28.6232 4.31187 25.8943 2.35863C23.0531 0.324437 19.5766 -0.223087 16.419 0.565874C13.2013 -0.535468 9.617 -0.00768192 6.86754 1.96158C4.06205 3.97031 2.46381 7.00744 2.21766 10.167C0.0766081 12.858 -0.55996 16.4452 0.508534 19.684C1.59909 22.9918 4.10385 25.4562 7.14881 26.6402C9.09016 29.4356 12.3296 31.1117 15.7557 31.1111C19.3182 31.1111 22.4973 29.4949 24.58 26.9661C27.8241 25.986 30.3947 23.489 31.4406 20.3145C32.5366 16.9916 31.9703 13.5302 30.1941 10.8029ZM15.8169 20.031L16.428 18.1779L11.2785 18.1959C10.4408 18.1962 9.66112 17.6704 9.38827 16.8426L8.03037 12.7218C7.28234 10.4548 8.05301 7.87707 10.1154 6.40013L13.6384 3.85102C16.8741 1.53277 21.3823 1.40947 24.7936 3.85188C26.3274 4.95866 27.4302 6.53086 27.9593 8.29215C27.7515 8.11937 27.537 7.95317 27.3152 7.7944L23.7669 5.27933C21.0299 3.3198 17.4137 3.41849 14.8178 5.27819L11.2608 7.82472C9.87215 8.81908 9.35401 10.5543 9.85764 12.0805L11.2721 16.3302H13.2495L11.6408 11.5095C11.3819 10.7243 11.6483 9.83117 12.363 9.31969L15.92 6.77344C17.8764 5.37202 20.6024 5.29736 22.6651 6.7743L26.2136 9.28851C29.4508 11.6048 30.9628 15.7919 29.6598 19.7441C29.0566 21.5509 27.8534 23.0893 26.2827 24.1306C26.3849 23.8829 26.4787 23.6311 26.5631 23.3754L27.8937 19.2727C28.939 16.102 27.726 12.743 25.1295 10.8845L21.5728 8.33763C20.1841 7.34356 18.3493 7.39391 17.0323 8.33763L13.439 10.9271L14.05 12.7808L18.1342 9.8326C18.812 9.34715 19.7562 9.32112 20.4709 9.8326L24.0273 12.3797C25.9846 13.7803 26.8987 16.3122 26.1109 18.702L24.7811 22.805C23.546 26.5547 19.9725 29.266 15.756 29.266C13.7868 29.2589 11.8942 28.58 10.3888 27.3857C10.6954 27.4106 11.0039 27.4232 11.3139 27.4232L15.6846 27.4026C19.0674 27.4026 21.9341 25.2277 22.9254 22.2197L24.2842 18.099C24.8145 16.4901 24.1989 14.7861 22.8813 13.8432L19.3188 11.2924L17.7237 12.4343L21.7791 15.3379C22.4572 15.823 22.7742 16.7001 22.5013 17.5277L21.1423 21.6481C20.3948 23.9155 18.234 25.5546 15.6846 25.5546L11.3139 25.5761C7.31369 25.5772 3.59297 23.0656 2.28994 19.1136C1.68472 17.2548 1.75932 15.2586 2.45801 13.4707C2.53522 13.81 2.62811 14.1467 2.73812 14.4803L4.1085 18.5704C5.15406 21.7408 8.13893 23.7559 11.3482 23.7553H15.7447C17.461 23.7553 18.9153 22.6514 19.4181 21.1252L20.7928 16.9152L19.1931 15.7698L17.6349 20.5542C17.3763 21.3398 16.6277 21.9076 15.7447 21.9076L11.3482 21.907C8.92935 21.9076 6.67973 20.3889 5.89193 17.9991L4.52068 13.9096C3.28354 10.1604 4.55726 5.89723 7.96883 3.45454C9.5276 2.34719 11.4086 1.79938 13.2919 1.86088C13.0347 2.01564 12.783 2.18099 12.5374 2.35663L9.01382 4.90488C6.27712 6.86441 5.25478 10.2846 6.24723 13.2922L7.6057 17.413C8.13632 19.0218 9.65067 20.0436 11.2791 20.043L15.8169 20.031Z" fill="black"/>
</svg>
