<svg width="32" height="32" viewBox="0 0 32 32" fill="none" xmlns="http://www.w3.org/2000/svg">
<path fill-rule="evenodd" clip-rule="evenodd" d="M13.4733 15.2722L11.3422 15.2722C17.6416 15.2722 21.4318 11.6584 18.785 8.74552C18.0571 7.94478 17.6416 6.83301 17.6416 5.28026C17.6416 1.05605 20.5133 -3.61565e-07 24.9599 -4.3994e-07C29.2213 -5.15049e-07 32.0004 1.05605 32.0004 5.28027C32.0004 9.42324 29.2213 10.4793 24.9599 10.4793C23.0259 10.4793 21.5325 10.901 20.4143 11.5914C18.4847 13.5532 18.1554 16.0164 20.0914 18.2239C21.198 19.4853 21.8297 21.2366 21.8297 23.6825C21.8297 30.3365 17.4638 32 10.7036 32C4.22515 32 -1.54314e-06 30.3365 -9.01647e-07 23.6825C-2.72499e-07 17.1564 4.22515 15.4929 10.7037 15.4929C11.7029 15.4929 12.6248 15.4161 13.4733 15.2722Z" fill="black"/>
</svg>
