<svg width="32" height="32" viewBox="0 0 32 32" fill="none" xmlns="http://www.w3.org/2000/svg">
<rect width="32" height="32" rx="5" fill="#47A3DF"/>
<path d="M16 17.9999L13.7731 16.0508L7.40625 21.5086C7.63768 21.7234 7.95011 21.8571 8.29468 21.8571H23.7052C24.0485 21.8571 24.3597 21.7234 24.5898 21.5086L18.2268 16.0508L16 17.9999Z" fill="white"/>
<path d="M24.5938 9.34843C24.3624 9.13243 24.0512 9 23.7054 9H8.29479C7.95151 9 7.64036 9.13371 7.40894 9.351L16.0001 16.7143L24.5938 9.34843Z" fill="white"/>
<path d="M7 10.1289V20.8106L13.2139 15.5302L7 10.1289Z" fill="white"/>
<path d="M18.7861 15.5301L25 20.8106V10.125L18.7861 15.5301Z" fill="white"/>
</svg>
