<svg width="32" height="32" viewBox="0 0 32 32" fill="none" xmlns="http://www.w3.org/2000/svg">
<rect width="32" height="32" rx="5" fill="#47A3DF"/>
<path fill-rule="evenodd" clip-rule="evenodd" d="M9.18381 7C7.86356 7 7 7.86598 7 9.00478C7 10.1188 7.83857 11.011 9.13259 11.011H9.15837C10.5042 11.011 11.3412 10.1189 11.3412 9.00478C11.3158 7.86598 10.5042 7 9.18381 7ZM25 17.5453V24.2001H21.142V17.991C21.142 16.4313 20.584 15.3668 19.1875 15.3668C18.1215 15.3668 17.4871 16.0842 17.208 16.7781C17.1063 17.0262 17.0801 17.3715 17.0801 17.7188V24.2001H13.2208C13.2208 24.2001 13.2728 13.684 13.2208 12.5945H17.0797V14.2395C17.076 14.2453 17.0718 14.2513 17.0676 14.2573C17.0629 14.264 17.0582 14.2707 17.0543 14.277H17.0797V14.2395C17.5924 13.4499 18.508 12.3218 20.5574 12.3218C23.0965 12.3218 25 13.9806 25 17.5453ZM11.087 24.2001H7.22921V12.5945H11.087V24.2001Z" fill="white"/>
</svg>
