<svg width="32" height="32" viewBox="0 0 32 32" fill="none" xmlns="http://www.w3.org/2000/svg">
<rect width="32" height="32" rx="5" fill="#47A3DF"/>
<path d="M25 10.7299C24.3375 11.0235 23.6266 11.2226 22.8798 11.3114C23.6424 10.8548 24.2261 10.1304 24.5028 9.26994C23.7875 9.69285 22.9978 9.99994 22.1565 10.1664C21.4828 9.44768 20.5244 9 19.4615 9C17.4223 9 15.7688 10.6534 15.7688 12.6916C15.7688 12.9806 15.8014 13.2629 15.8644 13.5329C12.796 13.3788 10.0752 11.9087 8.25412 9.67485C7.9358 10.2193 7.75471 10.8536 7.75471 11.5308C7.75471 12.8119 8.40709 13.9423 9.39692 14.6037C8.79177 14.5835 8.22262 14.417 7.72435 14.1403V14.1864C7.72435 15.9748 8.99762 17.4674 10.6859 17.8071C10.3766 17.8903 10.0504 17.9365 9.71298 17.9365C9.47453 17.9365 9.24394 17.9128 9.01786 17.8678C9.488 19.3357 10.8513 20.4031 12.4665 20.4324C11.2033 21.4222 9.61062 22.0105 7.88071 22.0105C7.58265 22.0105 7.28906 21.9925 7 21.9598C8.63433 23.0093 10.5746 23.6212 12.66 23.6212C19.4525 23.6212 23.1655 17.995 23.1655 13.1156L23.1531 12.6376C23.8786 12.1202 24.5062 11.47 25 10.7299Z" fill="white"/>
</svg>
